<svg xmlns="http://www.w3.org/2000/svg" viewBox="0 0 420 100" fill="currentColor" role="img" aria-label="Q Deneme">
  <g>
    <!-- Q ring -->
    <path fill-rule="evenodd" d="M50 8a42 42 0 1 0 0 84 42 42 0 0 0 0-84zm0 18a24 24 0 1 1 0 48 24 24 0 0 1 0-48z"/>
    <!-- Q tail/curl -->
    <path d="M64 70c10 9 16 20 7 24-7 3-12-2-12-9" fill="none" stroke="currentColor" stroke-width="13" stroke-linecap="round" stroke-linejoin="round"/>
  </g>
  <!-- DENEME wordmark -->
  <text x="105" y="73" font-family="'Plus Jakarta Sans','Inter',system-ui,-apple-system,'Segoe UI',sans-serif" font-weight="900" font-size="72" letter-spacing="-2">DENEME</text>
  <!-- Star -->
  <path d="M403 76l3.4 8.3 8.6.4-6.6 5.6 2.2 8.7-7.6-4.7-7.6 4.7 2.2-8.7-6.6-5.6 8.6-.4z"/>
</svg>
